<svg xmlns="http://www.w3.org/2000/svg"  viewBox="0 0 400 400"><path fill="none" stroke="#27AAE1" stroke-width="3" stroke-miterlimit="10" d="M370.417 200.677h4.113l.047-.002.07-.002.095-.004.118-.01.14-.01.165-.02.19-.02.21-.03.234-.03.25-.04.28-.04.3-.05.32-.05.35-.06.37-.07.39-.08.41-.09.44-.1.46-.11.47-.12.5-.13.52-.15.54-.16.56-.17.58-.18.6-.2.62-.21.65-.23.66-.24.68-.26.7-.28.72-.29.74-.31.75-.33.77-.35.79-.37.81-.39.82-.4.84-.42.86-.45.87-.47.89-.49.9-.51.33-.5-.57-8.8-.4-.46-.96-.39-.94-.37-.93-.35-.91-.33-.89-.31-.87-.29-.86-.28-.84-.26-.82-.25-.8-.22-.78-.21-.75-.2-.73-.18-.71-.17-.69-.16-.67-.14-.65-.13-.63-.11-.61-.11-.59-.09-.56-.08-.54-.07-.51-.07-.5-.06-.47-.05-.44-.04-.43-.04-.4-.03-.38-.02-.36-.02-.33-.01-.31-.01H374l-.21.01-.19.01-.16.01-.14.01h-.12l-.09.01-.07.01h-.05l-4.08.53-2.284-13.32 4.02-.85.042-.01.07-.02.09-.03.112-.03.14-.04.15-.05.18-.06.207-.07.22-.08.247-.09.27-.1.29-.11.305-.12.32-.13.35-.15.37-.16.39-.17.4-.19.43-.2.44-.22.46-.24.48-.25.5-.27.52-.29.53-.3.55-.32.57-.33.59-.35.6-.38.61-.39.63-.41.65-.43.66-.46.67-.48.69-.5.7-.52.71-.54.72-.57.74-.59.74-.62.76-.63.76-.66.78-.68.22-.56-2.38-8.49-.48-.37-1.02-.18-1-.17-.98-.14-.96-.14-.94-.12-.91-.11-.89-.09-.87-.08-.85-.07-.82-.05-.8-.05-.78-.04-.76-.03-.73-.02-.71-.01H374l-.66.01-.633.01-.617.02-.583.03-.57.03-.54.04-.515.04-.493.05-.47.05-.45.05-.42.05-.4.06-.38.06-.35.06-.33.06-.3.06-.28.06-.26.05-.23.05-.21.05-.19.05-.16.04-.14.04-.11.03-.09.03-.07.02-.05.02-3.88 1.36-5.01-12.55 3.76-1.67.04-.02.06-.03.08-.04.1-.06.13-.06.14-.08.16-.1.19-.11.2-.12.22-.14.24-.15.26-.16.27-.18.3-.19.31-.22.33-.23.34-.25.36-.26.38-.29.39-.31.4-.32.42-.34.43-.36.45-.39.46-.4.47-.43.49-.45.5-.47.51-.49.52-.52.53-.53.54-.56.55-.58.56-.6.56-.63.57-.65.58-.68.59-.71.6-.73.6-.75.61-.78.61-.81.62-.83.1-.6-4.1-7.81-.55-.26-1.04.04-1.01.05-.99.06-.96.07-.94.08-.92.09-.89.1-.86.1-.84.11-.82.11-.8.12-.77.13-.74.13-.72.14-.69.14-.67.14-.64.15-.62.15-.59.15-.57.15-.55.15-.52.15-.5.15-.47.15-.45.14-.42.14-.4.14-.38.14-.35.14-.33.13-.31.12-.29.12-.26.12-.24.1-.22.1-.19.09-.17.08-.15.07-.12.06-.1.06-.08.04-.06.03-.04.02-3.51 2.14-7.51-11.24 3.33-2.41.04-.03.05-.05.08-.06.09-.07.11-.09.13-.11.14-.12.16-.15.17-.16.19-.18.2-.2.22-.22.23-.24.25-.25.26-.27.27-.29.29-.32.3-.33.31-.357.32-.38.33-.4.34-.43.35-.45.36-.47.36-.49.38-.52.38-.54.39-.56.39-.59.4-.61.41-.63.42-.66.41-.69.42-.71.43-.74.43-.76.43-.78.43-.81.43-.83.43-.86.43-.89.43-.92.43-.944-.03-.6-5.64-6.78-.59-.14-1.01.25-.98.26-.96.26-.93.26-.91.27-.88.28-.85.28-.83.28-.8.28-.78.28-.75.29-.72.28-.7.28-.67.28-.65.28-.63.28-.6.28-.57.27-.55.27-.52.27-.51.26-.48.253-.46.25-.43.25-.41.24-.39.23-.37.22-.34.21-.32.2-.29.19-.28.19-.25.18-.23.17-.21.15-.19.14-.17.13-.15.12-.13.11-.11.09-.09.07-.07.06-.06.042-.04.03-2.98 2.83-9.68-9.43 2.75-3.06.03-.04.04-.06.06-.07.07-.09.09-.11.1-.13.11-.15.13-.17.14-.19.15-.22.16-.23.17-.26.18-.28.19-.3.19-.32.21-.35.21-.36.22-.39.23-.41.23-.43.24-.46.25-.49.25-.51.25-.53.26-.56.25-.58.26-.604.27-.63.26-.656.26-.684.27-.7.26-.73.27-.76.264-.78.26-.81.26-.83.26-.86.26-.88.25-.91.24-.94.24-.96.23-.98.23-1.01-.16-.59-6.92-5.46-.61-.01-.93.46-.91.46-.88.46-.85.45-.83.46-.8.45-.78.45-.75.45-.72.44-.7.44-.68.43-.65.43-.62.42-.6.42-.57.41-.55.4-.53.4-.51.39-.487.38-.46.37-.43.36-.41.35-.4.34-.37.33-.35.31-.33.31-.31.29-.29.28-.27.27-.25.25-.23.24-.21.23-.19.21-.17.19-.15.18-.13.16-.12.15-.105.13-.09.11-.07.09-.06.08-.04.06-.03.04-2.33 3.38-11.43-7.21 2.05-3.56.02-.04.03-.07.05-.08.05-.11.06-.13.07-.15.08-.17.08-.2.09-.21.09-.24.11-.26.11-.28.12-.31.12-.33.13-.36.13-.38.13-.4.13-.43.14-.45.14-.48.13-.5.14-.52.14-.55.14-.57.14-.6.135-.62.13-.65.12-.67.12-.697.12-.72.11-.75.11-.77.1-.79.1-.82.09-.84.08-.87.08-.89.06-.91.055-.94.04-.96.04-.99.02-1.01.01-1.04-.27-.54-7.91-3.9-.59.11-.82.64-.79.63-.77.63-.74.63-.71.61-.69.61-.66.6-.64.59-.61.58-.59.57-.57.57-.54.55-.53.54-.5.53-.48.52-.45.51-.43.495-.41.48-.39.47-.37.452-.35.44-.33.42-.32.41-.29.4-.28.38-.26.37-.24.35-.22.33-.2.31-.19.3-.177.28-.16.26-.14.25-.13.22-.113.21-.1.19-.09.17-.08.15-.06.13-.05.1-.04.08-.03.06-.02.05-1.58 3.8-12.68-4.68 1.27-3.91.01-.05.02-.07.02-.09.03-.11.03-.14.04-.16.04-.19.04-.21.05-.23.05-.253.05-.28.05-.3.05-.32.05-.35.05-.38.05-.4.04-.42.04-.45.04-.47.04-.5.03-.52.02-.54.02-.57.02-.59v-1.2l-.01-.66-.02-.68-.022-.705-.03-.73-.05-.75-.06-.78-.06-.8-.07-.82-.09-.84-.1-.86-.115-.89-.13-.91-.14-.93-.15-.95-.17-.97-.184-1-.2-1.02-.38-.48-8.55-2.17-.56.23-.67.79-.64.78-.62.77-.59.76-.57.75-.55.74-.52.73-.5.71-.48.69-.46.68-.44.67-.42.66-.4.64-.38.62-.36.61-.34.59-.32.58-.3.56-.29.54-.27.52-.25.5-.24.484-.22.47-.21.45-.19.43-.18.41-.17.39-.15.37-.14.35-.12.33-.12.31-.1.29-.09.27-.08.25-.07.22-.06.2-.05.18-.04.16-.03.13-.03.12-.02.09-.01.07-.01.05-.75 4.04L218 31.47l.43-4.085v-.12l.01-.092.01-.12v-.14l.005-.163v-.4l-.01-.24-.01-.26-.01-.28-.012-.3-.02-.33-.024-.35-.03-.37-.04-.4-.04-.42-.05-.44-.06-.47-.07-.49-.08-.51-.09-.53-.1-.555-.11-.58-.12-.6-.13-.63-.15-.65-.16-.668-.17-.69-.19-.708-.2-.73-.21-.75-.23-.77-.25-.79-.26-.81-.28-.83-.3-.85-.32-.87-.33-.88-.35-.9-.37-.92-.39-.93-.41-.95-.47-.39-8.81-.35-.49.35-.49.91-.47.9-.44.88-.42.87-.4.85-.38.84-.36.82-.35.8-.33.78-.31.76-.29.74-.27.73-.26.71-.24.69-.23.67-.21.65-.2.63-.18.61-.17.59-.16.56-.14.55-.13.52-.12.5-.11.48-.09.46-.09.44-.08.42-.07.39-.06.37-.06.35-.04.32-.04.31-.03.28-.03.26-.02.24-.01.21-.01.19-.01.16-.01.15-.01.12v.23l.1 4.11-13.49.87-.43-4.09-.01-.05-.01-.07-.02-.1-.02-.11-.02-.14-.03-.16-.04-.19-.05-.21-.05-.23-.06-.25-.07-.27-.08-.3-.09-.32-.1-.34-.11-.36-.12-.39-.13-.4-.14-.42-.16-.45-.17-.47-.18-.48-.2-.51-.21-.53-.23-.54-.25-.56-.26-.58-.27-.6-.29-.62-.31-.64-.33-.65-.34-.67-.36-.69-.39-.7-.4-.72-.42-.73-.44-.75-.46-.76-.49-.78-.51-.79-.53-.81-.56-.82-.58-.84-.6-.85-.54-.28-8.7 1.49-.41.44-.29 1-.27.98-.25.96-.23.93-.22.92-.2.9-.18.88-.17.86-.15.83-.14.81-.13.79-.12.77-.1.75-.1.72-.08.7-.07.68-.06.66-.05.63-.04.61-.03.59-.03.56-.02.54-.01.52-.01.49.01.47v.45l.01.42.01.4.02.38.02.354.02.33.03.31.03.28.03.26.02.24.03.21.03.19.02.16.03.14.02.11.02.09.01.07.01.05.96 4-13 3.66-1.27-3.91-.01-.04-.03-.07-.04-.09-.05-.11-.05-.13-.07-.15-.08-.18-.09-.19-.1-.21-.11-.23-.12-.25-.13-.27-.15-.29-.16-.31-.18-.33-.2-.35-.22-.37-.23-.38-.24-.4-.26-.42-.28-.44-.3-.45-.32-.47-.34-.48-.36-.5-.38-.51-.4-.53-.42-.54-.44-.56-.46-.57-.48-.59-.5-.6-.52-.61-.55-.62-.56-.63-.59-.64-.61-.65-.64-.66-.67-.67-.69-.68-.71-.687-.74-.7-.77-.7-.58-.16-8.19 3.266-.314.52-.07 1.03-.05 1.01-.05.99-.03.96-.02.94-.01.92.01.9.01.87.02.85.03.83.04.8.04.78.05.75.06.73.07.71.07.68.08.66.08.63.08.6.09.59.09.56.1.53.1.51.1.49.1.46.1.43.1.41.1.39.1.36.09.34.09.32.09.29.08.27.08.25.07.22.07.2.07.17.06.15.05.13.04.11.04.08.03.07.02.05 1.76 3.71-11.97 6.29-2.06-3.56-.03-.04-.03-.06-.05-.08-.07-.1-.08-.11-.09-.13-.11-.15-.12-.17-.14-.19-.15-.21-.18-.22-.19-.24-.21-.25-.22-.27-.24-.28-.27-.3-.28-.316-.3-.33-.3-.33-.346-.36-.36-.37-.38-.38-.41-.39-.43-.41-.45-.42-.48-.43-.492-.43-.52-.45-.54-.45-.563-.46-.59-.47-.61-.48-.638-.48-.66-.49-.69-.5-.71-.5-.74-.51-.76-.52-.79-.52-.81-.52-.84-.53-.86-.53-.9-.53-.605-.03-7.35 4.91-.2.57.15 1.03.15 1 .16.98.17.95.18.93.18.9.19.88.19.85.2.83.2.8.21.77.2.75.21.72.21.7.21.68.21.65.21.62.22.6.21.58.21.55.2.52.2.5.2.48.2.46.19.43.19.4.18.38.18.36.17.34.16.313.16.29.15.27.14.24.13.22.12.2.11.18.1.16.09.14.08.12.07.1.06.08.04.06.03.04 2.5 3.26-10.4 8.64-2.75-3.05-.03-.03-.05-.05-.07-.06-.08-.08-.1-.1-.12-.11-.14-.13-.154-.14-.18-.16-.2-.17-.22-.18-.24-.19-.26-.2-.28-.22-.3-.23L81 69l-.34-.25-.366-.253-.39-.27-.41-.277-.437-.285-.46-.29-.48-.3-.5-.306-.53-.32-.55-.32-.58-.32-.6-.33-.627-.33-.65-.34-.676-.34-.7-.34-.725-.34-.75-.35-.78-.35-.8-.35-.83-.35-.85-.35-.88-.35-.9-.34-.93-.34-.96-.34-.99-.33-.6.09-6.16 6.31-.08.6.36.97.36.95.36.92.36.89.36.87.37.84.36.82.37.79.36.76.36.74.36.72.36.69.35.66.36.64.34.61.34.59.33.57.33.54.33.52.32.49.31.47.3.45.3.42.28.4.28.38.27.36.26.34.25.31.23.29.23.27.21.25.2.23.19.21.18.19.16.17.14.16.13.13.12.12.1.1.09.08.07.06.05.05.03.03 3.12 2.67-8.39 10.65-3.33-2.41-.04-.03-.06-.04-.08-.05-.1-.06-.12-.08-.12-.07-.16-.1-.18-.11-.21-.12-.23-.12-.25-.14-.27-.14-.29-.14-.33-.15-.34-.16-.37-.17-.39-.17-.41-.17-.43-.18-.46-.19-.48-.19-.51-.19-.53-.19-.56-.2-.58-.2-.61-.2-.63-.2-.66-.2-.68-.19-.7-.2-.73-.19-.76-.19-.78-.18-.8-.18-.83-.18-.86-.17-.88-.16-.91-.16-.93-.15-.95-.15-.98-.14-1-.13-1.03-.12-.57.21-4.71 7.45.05.6.55.88.55.85.54.83.54.8.54.78.53.75.53.72.53.7.52.68.51.65.5.62.49.6.48.58.48.55.47.53.45.5.45.48.44.46.42.44.41.42.4.4.39.38.38.35.36.34.35.31.34.3.32.28.3.26.29.24.28.22.26.2.25.19.22.17.21.15.19.13.17.12.16.1.14.09.12.07.1.06.08.05.06.03.04.02 3.61 1.96-5.99 12.11-3.76-1.67-.05-.02-.06-.02-.09-.04-.11-.04-.13-.05-.15-.06-.18-.06-.2-.06-.22-.07-.25-.08-.27-.08-.3-.08-.32-.09-.34-.08-.37-.09-.39-.09-.42-.08-.44-.09-.46-.09-.49-.08-.51-.08-.54-.08-.56-.08-.58-.08-.61-.07-.63-.07-.66-.06-.69-.06-.71-.05-.73-.04-.75-.03-.78-.03-.8-.02-.83-.01h-.85l-.87.01-.9.02-.92.04-.94.04-.96.06-.99.06-1.01.08-1.04.1-.51.33-3.05 8.27.18.58.72.75.71.72.71.69.69.67.69.64.68.62.66.6.66.57.64.55.63.53.62.5.61.49.59.47.58.44.57.42.55.4.54.38.53.36.51.34.49.33.48.3.46.28.44.26.43.25.41.23.39.22.37.2.35.19.33.18.32.15.29.14.28.13.26.11.24.11.21.09.19.08.17.07.15.06.13.05.11.04.09.03.07.02.04.01 3.94 1.17-3.34 13.09-4.03-.86-.04-.01-.07-.01-.09-.01-.11-.02-.14-.02-.17-.02-.19-.02-.21-.03-.23-.02-.26-.02-.28-.02-.3-.01-.33-.01-.35-.01-.38-.01-.4-.01h-.43l-.45.01-.47.01-.5.02-.52.02-.54.03-.56.04-.58.05-.61.06-.63.06-.66.08-.68.08-.7.1-.72.11-.74.12-.77.13-.79.15-.81.16-.83.18-.85.19-.87.2-.9.22-.91.24-.93.25-.96.28-.97.29-.99.31-.44.43-1.27 8.73.29.53.86.58.85.55.83.53.82.51.81.49.79.47.78.45.76.43.74.4.73.39.71.36.7.34.68.33.66.31.64.3.63.27.61.26.59.24.57.23.55.21.53.2.51.18.49.17.47.16.44.15.43.13.41.12.39.11.37.1.34.09.32.08.3.07.28.06.25.05.23.04.21.04.18.03.16.03.14.02.12.02.09.01.07.01h.05l4.1.33-.54 13.5h-4.2l-.09.01h-.11l-.14.01-.16.02-.19.01-.21.022-.24.03-.26.032-.28.04-.3.05-.33.05-.35.07-.37.07-.4.08-.42.09-.44.1-.46.11-.48.12-.51.13-.52.14-.54.15-.57.17-.58.18-.6.2-.63.21-.64.23-.67.24-.68.26-.7.27-.72.29-.74.31-.76.33-.77.34-.79.37-.81.39-.83.4-.84.42-.86.45-.87.46-.89.49-.9.51-.33.5.57 8.79.39.46.96.39.95.37.93.35.91.33.89.31.87.29.85.27.83.25.81.24.8.23.77.21.75.2.73.18.71.17.69.15.67.14.65.13.63.12.6.1.58.092.56.08.53.07.51.065.5.06.47.05.45.05.42.03.4.027.38.02.35.02.33.01.3.006.28.01h.71l.19-.01.16-.01.14-.01.12-.01.09-.01.07-.006h.04l4.08-.54 2.3 13.3-4.026.85-.05.01-.07.02-.09.028-.12.03-.13.04-.16.05-.18.06-.2.07-.22.07-.24.084-.264.1-.28.11-.31.12-.33.13-.35.15-.37.16-.39.18-.41.182-.424.2-.45.21-.47.23-.48.25-.5.27-.51.28-.54.3-.55.32-.56.34-.59.35-.6.38-.61.39-.63.41-.65.43-.66.46-.67.48-.69.5-.7.52-.71.54-.72.56-.74.59-.75.61-.76.63-.77.66-.78.68-.22.56 2.39 8.48.48.36 1.02.17 1 .16.98.15.96.13.94.12.91.1.89.09.87.08.85.07.83.06.8.05.77.03.75.02.73.02h1.4l.66-.01.63-.02.61-.02.59-.03.564-.03.54-.04.51-.04.5-.05.47-.05.44-.05.42-.05.4-.05.38-.06.35-.06.33-.06.3-.06.27-.06.25-.056.23-.05.2-.05.19-.04.16-.05.14-.04.12-.03.09-.03.07-.02.04-.02 3.88-1.37 5 12.56-3.76 1.67-.04.02-.06.03-.08.04-.11.06-.13.07-.14.08-.17.09-.19.11-.2.12-.22.13-.24.15-.25.16-.28.18-.29.2-.31.214-.33.23-.34.25-.36.27-.377.28-.39.31-.41.32-.42.34-.43.36-.45.39-.46.4-.47.43-.48.45-.5.47-.5.49-.52.51-.53.54-.55.56-.55.58-.56.6-.567.63-.58.65-.59.68-.59.7-.6.73-.6.76-.61.78-.62.806-.62.83-.1.59 4.1 7.8.55.26 1.04-.04H31l.99-.06.963-.07.94-.08.92-.08.89-.1.87-.1.848-.11.81-.12.8-.12.77-.13.75-.13.72-.14.69-.14.67-.14.65-.15.62-.15.59-.15.57-.15.54-.15.52-.15.5-.15.48-.15.45-.15.43-.15.4-.14.38-.14.36-.13.33-.13.3-.13.28-.12.26-.11.24-.11.21-.1.19-.09.17-.09.14-.08.13-.06.11-.06.09-.044.06-.03.04-.03 3.51-2.14 7.54 11.24-3.33 2.42-.03.02-.06.05-.08.06-.09.07-.11.09-.12.11-.14.12-.16.15-.17.16-.19.18-.2.19-.21.21-.23.23-.24.25-.26.27-.27.29-.29.31-.3.33-.31.36-.32.38-.33.4-.33.42-.35.45-.35.47-.37.49-.38.52-.38.54-.39.56-.39.59-.4.61-.41.63-.41.66-.42.68-.42.71-.43.73-.43.76-.43.79-.43.81-.43.83-.43.87-.43.89-.43.92-.44.94.03.6 5.64 6.78.59.14 1.01-.254.98-.26.95-.266.93-.27.9-.27.87-.27.85-.28.83-.28.8-.28.77-.286.75-.29.73-.28.7-.29.68-.28.65-.28.62-.28.59-.27.58-.28.55-.27.53-.27.5-.27.48-.25.45-.25.43-.25.41-.24.38-.23.36-.22.34-.21.32-.2.3-.2.27-.18.25-.18.23-.16.21-.15.19-.14.17-.13.15-.12.13-.1.11-.09.09-.08.07-.06.05-.05.03-.03 2.99-2.82 9.68 9.43-2.73 3.02-.03.03-.05.05-.06.077-.08.09-.09.11-.1.13-.12.15-.12.17-.14.2-.15.22-.16.24-.17.26-.18.28-.19.3-.2.32-.2.34-.21.37-.22.39-.22.42-.23.44-.24.46-.24.49-.25.51-.25.53-.25.56-.26.58-.26.61-.27.63-.26.65-.27.68-.27.7-.26.73-.26.76-.27.78-.26.8-.26.84-.25.86-.25.89-.25.91-.25.94-.24.96-.23.99-.23 1.01.15.59 6.92 5.46.6.01.93-.46.91-.46.88-.46.86-.45.83-.45.8-.45.78-.45.75-.45.73-.44.7-.44.67-.44.65-.43.63-.42.6-.42.58-.41.56-.4.53-.39.51-.39.48-.38.46-.37.43-.36.42-.35.39-.34.37-.33.35-.32.33-.3.31-.29.28-.28.27-.27.25-.25.23-.24.21-.22.19-.21.17-.19.15-.18.14-.16.12-.15.1-.13.09-.11.07-.09.06-.07.04-.05.03-.04 2.33-3.38 11.43 7.21-2.06 3.56-.02.04-.03.06-.04.08-.05.11-.06.13-.07.15-.08.17-.09.19-.09.22-.1.24-.1.27-.11.28-.11.31-.12.33-.12.35-.13.38-.13.4-.13.43-.13.45-.14.47-.14.5-.14.53-.14.55-.14.57-.14.6-.13.62-.13.65-.13.67-.12.7-.12.72-.11.74-.11.77-.1.8-.1.82-.09.84-.08.87-.07.89-.06.92-.05.94-.04.96-.04.99-.02 1.01-.01 1.04.27.54 7.91 3.9.59-.115.82-.64.79-.63.76-.63.74-.62.72-.617.69-.61.67-.6.64-.59.62-.58.59-.57.57-.56.55-.55.52-.55.5-.53.48-.52.46-.51.43-.5.41-.48.39-.47.37-.455.36-.443.33-.43.31-.41.29-.4.28-.38.25-.37.24-.35.23-.34.21-.31.19-.3.17-.28.16-.26.14-.24.13-.22.11-.21.1-.18.09-.16.08-.15.07-.13.05-.11.04-.08.03-.07.02-.04 1.58-3.8 12.68 4.68-1.27 3.91-.02.04-.02.07-.02.09-.03.117-.03.13-.04.16-.04.19-.04.2-.05.23-.05.26-.05.28-.05.3-.05.33-.05.35-.05.37-.04.4-.04.42-.05.447-.04.47-.03.5-.03.51-.03.54-.02.56-.02.59v1.24l.01.66.02.684.02.71.04.73.04.75.05.78.07.8.078.82.09.84.1.87.12.887.12.91.148.93.16.96.18.97.19 1 .21 1.02.38.47 8.55 2.18.56-.24.66-.79.64-.79.62-.77.59-.77.57-.75.55-.74.52-.73.5-.71.48-.69.46-.68.44-.67.42-.66.4-.64.38-.63.36-.61.34-.59.32-.57.3-.56.28-.54.27-.52.26-.5.23-.49.22-.47.21-.45.19-.43.18-.41.16-.39.15-.37.14-.35.12-.33.11-.31.1-.29.1-.27.08-.25.07-.22.06-.2.05-.18.05-.16.03-.14.03-.11.02-.09.01-.07.01-.04.75-4.04 13.39 1.95-.43 4.09v.05l-.01.07v.22l-.01.14-.01.16v.63l.01.26.01.28.02.31.02.33.02.35.03.37.04.4.05.42.06.45.06.47.07.49.08.51.09.54.1.55.11.58.12.6.13.62.14.65.16.67.17.68.19.71.2.72.22.75.23.76.25.79.26.81.28.83.296.85.32.87.33.88.36.9.37.92.39.93.41.95.47.39 8.81.35.5-.34.48-.916.46-.9.44-.89.43-.87.4-.86.38-.84.36-.82.34-.8.32-.79.31-.76.29-.75.28-.73.26-.71.24-.69.227-.67.21-.65.19-.63.18-.61.17-.59.15-.57.14-.55.13-.52.12-.5.11-.48.09-.46.09-.44.08-.42.07-.4.06-.37.05-.35.04-.33.04-.31.03-.28.03-.26.02-.23.01-.21.01-.19.01-.16.01-.14v-.33l-.1-4.11 13.49-.87.43 4.09v.05l.01.07.02.09.02.11.02.14.03.16.04.18.04.21.05.23.06.26.07.27.07.3.09.32.1.34.11.36.12.38.13.41.14.42.15.44.17.46.18.49.2.5.21.53.23.54.24.568.26.58.28.6.29.62.31.64.33.653.346.67.36.68.38.71.4.714.42.737.45.757.47.76.49.78.51.8.53.81.55.82.58.84.6.85.54.28 8.69-1.49.42-.44.29-1 .27-.98.25-.96.23-.93.22-.92.2-.9.18-.87.17-.86.15-.83.14-.81.13-.79.12-.77.1-.75.09-.72.08-.7.07-.68.07-.66.05-.63.04-.61.03-.59.02-.565.02-.54.01-.51.01-.5v-.8l-.01-.43-.01-.4-.02-.38-.02-.35-.02-.33-.024-.3-.03-.28-.03-.26-.03-.23-.03-.21-.02-.18-.03-.16-.02-.14-.02-.12-.02-.09-.01-.07-.01-.05-.95-4 13.02-3.66 1.27 3.91.01.04.03.06.03.09.04.11.06.13.06.15.08.18.09.2.1.22.11.23.12.26.14.27.15.29.16.31.18.33.2.35.21.37.23.38.25.4.27.42.28.43.3.46.32.47.33.48.35.5.37.51.4.53.41.55.43.56.46.57.48.59.5.6.52.61.54.62.56.63.59.64.62.66.64.66.66.67.69.68.71.685.74.7.76.7.58.16 8.2-3.26.31-.52.07-1.03.06-1.01.04-.99.03-.97.02-.94.01-.92v-.9l-.01-.87-.02-.85-.03-.82-.04-.8-.05-.78-.05-.75-.06-.72-.07-.71-.07-.68-.08-.66-.08-.63-.09-.61-.09-.58-.09-.56-.095-.53-.1-.5-.1-.48-.1-.46-.1-.44-.1-.41-.1-.39-.09-.36-.09-.34-.1-.32-.09-.29-.08-.27-.08-.25-.073-.22-.07-.2-.07-.18-.06-.158-.05-.13-.04-.11-.03-.09-.03-.06-.02-.05-1.77-3.71 11.97-6.28 2.06 3.56.02.04.04.06.05.08.07.1.08.12.09.14.11.15.13.17.14.19.16.21.17.22.197.24.21.256.23.27.25.29.27.3.28.32.31.33.32.34.35.36.37.365.39.38.41.39.43.403.45.41.47.42.49.44.52.44.54.45.56.46.59.47.61.48.64.49.66.49.686.5.71.5.74.51.76.51.79.52.81.52.84.52.87.53.89.53.61.04 7.34-4.89.2-.57-.15-1.03-.15-1-.17-.97-.17-.95-.18-.93-.18-.9-.19-.88-.2-.85-.193-.82-.2-.8-.21-.78-.21-.75-.21-.73-.21-.7-.21-.67-.22-.65-.21-.627-.21-.6-.22-.58-.21-.55-.2-.52-.2-.5-.2-.48-.2-.45-.2-.43-.19-.41-.18-.38-.18-.36-.17-.34-.16-.31-.16-.29-.15-.27-.14-.24-.13-.23-.12-.2-.11-.19-.1-.16-.09-.14-.08-.12-.06-.1-.06-.08-.04-.06-.03-.03-2.5-3.26 10.4-8.63 2.75 3.05.03.04.05.05.07.06.08.08.1.1.12.11.14.13.16.14.18.16.2.17.216.18.24.2.26.21.28.22.3.23.32.24.34.25.36.257.39.27.41.275.43.29.45.29.48.3.5.31.53.31.55.32.58.32.61.33.62.33.65.34.67.34.7.34.72.346.75.35.77.35.8.35.83.34.86.35.88.34.9.34.93.34.96.34.98.33.6-.09 6.16-6.31.08-.6-.36-.98-.36-.95-.36-.92-.37-.9-.36-.87-.37-.85-.37-.82-.36-.79-.37-.76-.36-.74-.36-.71-.36-.69-.35-.66-.35-.64-.35-.61-.35-.59-.34-.57-.33-.54-.32-.52-.32-.5-.31-.47-.3-.45-.3-.42-.29-.4-.28-.38-.27-.36-.25-.33-.25-.313-.24-.3-.22-.27-.214-.25-.2-.23-.19-.21-.18-.2-.16-.18-.14-.16-.13-.13-.12-.12-.1-.1-.09-.08-.06-.07-.06-.05-.04-.03-3.12-2.67 8.38-10.61 3.33 2.41.04.03.06.04.08.05.1.06.12.07.14.09.16.1.18.107.21.12.23.13.25.13.27.14.3.15.32.16.34.16.37.17.39.18.41.18.44.18.46.18.48.19.51.19.53.19.55.2.58.2.61.19.63.19.656.19.68.19.705.19.73.19.75.19.78.18.81.19.83.18.86.17.88.16.91.16.93.158.95.15.98.14 1.01.13 1.03.12.57-.21 4.71-7.45-.05-.6-.55-.88-.55-.85-.546-.83-.54-.8-.53-.77-.53-.75-.53-.72-.52-.7-.513-.67-.51-.65-.5-.62-.49-.6-.49-.573-.48-.555-.47-.53-.46-.51-.45-.48-.44-.46-.43-.44-.42-.42-.4-.4-.39-.38-.38-.35-.36-.33-.35-.32-.34-.3-.32-.28-.31-.26-.29-.24-.28-.22-.26-.21-.25-.19-.23-.17-.21-.16-.2-.13-.17-.12-.16-.1-.14-.09-.12-.08-.1-.06-.08-.05-.06-.03-.044-.03-3.62-1.97 5.99-12.11 3.76 1.67.04.013.06.03.09.03.11.04.134.05.15.06.18.06.21.07.23.07.25.07.27.08.3.08.32.09.35.09.37.09.39.09.41.09.44.09.47.09.49.08.51.08.53.08.56.08.59.08.61.07.63.07.66.06.68.06.71.05.73.04.75.03.78.03.8.02.82.01h.85l.88-.01.89-.02.92-.03.94-.04.96-.05.99-.07 1.01-.08 1.04-.09.51-.33 3.05-8.26-.18-.58-.72-.74-.71-.72-.71-.69-.7-.67-.68-.65-.67-.62-.67-.59-.66-.57-.644-.55-.64-.53-.62-.504-.61-.49-.6-.46-.58-.44-.57-.42-.55-.4-.54-.38-.52-.36-.51-.34-.49-.32-.48-.3-.46-.29-.44-.27-.43-.25-.4-.24-.39-.22-.374-.2-.358-.18-.33-.17-.32-.15-.3-.14-.28-.13-.25-.12-.24-.1-.22-.09-.2-.08-.17-.07-.15-.06-.13-.05-.11-.04-.09-.03-.06-.02-.04-.02-3.94-1.17 3.3-13.16 4.02.852.046.01.07.02.09.01.11.02.14.02.16.02.18.03.21.02.23.02.26.03.28.02.31.01.33.01.35.01h.38l.4.01h.42l.44-.01.47-.01.49-.02.51-.03.54-.03.56-.05.59-.05.61-.06.63-.07.65-.076.68-.09.7-.1.73-.11.75-.12.77-.14.79-.15.81-.16.83-.18.85-.19.87-.2.89-.22.92-.233.93-.25.96-.27.97-.29.99-.31.43-.424 1.27-8.72-.29-.53-.86-.58-.85-.55-.83-.53-.82-.51-.81-.49-.79-.47-.78-.45-.76-.42-.75-.41-.73-.383-.71-.37-.69-.35-.68-.33-.66-.31-.64-.3-.63-.27-.61-.26-.59-.25-.57-.22-.545-.21-.53-.194-.51-.19-.49-.17-.47-.16-.45-.14-.43-.13-.41-.12-.39-.11-.36-.1-.34-.09-.32-.08-.3-.07-.272-.06-.25-.05-.23-.04-.21-.04-.19-.03-.16-.03-.14-.02-.11-.02-.09-.01h-.1l-.05-.01-4.1-.32z"/></svg>