<svg xmlns="http://www.w3.org/2000/svg" width="214" height="214" viewBox="0 0 214 214"><path fill="#231F20" stroke="#231F20" stroke-width="3" stroke-miterlimit="10" d="M184.46 106.9h9.26l.16-.02.2-.02.24-.03.3-.04.33-.1.38-.1.43-.1.47-.1.5-.2.56-.2.6-.2.6-.2.6-.3.7-.3.7-.3.8-.4.8-.4.8-.5.9-.5.9-.5.9-.6.9-.7 1-.6 1-.7 1-.8.6-.8-1-7.9-.8-.6-1.2-.5-1.2-.5-1.1-.4-1.1-.4-1.1-.3-1-.3-1-.2-1-.2-.9-.2-.9-.2-.8-.1-.7-.1-.7-.1-.7-.1-.6-.1h-3.7l-8.9 2.1-4.6-13.6 8.3-3.7.1-.1.1-.1.2-.1.2-.1.2-.2.3-.2.3-.2.4-.3.4-.3.4-.4.5-.4.5-.4.5-.5.5-.5.5-.6.5-.6.5-.6.6-.7.6-.8.6-.8.6-.9.6-.9.6-1 .6-1 .6-1.1.6-1.2.3-1-4-6.8-1-.2H191l-1.2.1-1.2.1-1.1.1-1.1.1-1 .1-1 .2-.9.2-.9.1-.8.2-.8.2-.76.2-.7.2-.6.2-.6.2-.5.2-.5.2-.5.2-.4.2-.4.2-.3.1-.24.2-.2.1-.2.1-.1.1h-.1l-7.2 5.6-9.7-10.6 6.1-6.8.1-.1.1-.1.1-.1.1-.2.1-.2.1-.3.2-.3.2-.4.2-.4.22-.4.2-.5.24-.5.3-.6.2-.6.2-.7.3-.7.3-.8.3-.8.2-.9.24-.98.2-.93.2-1.04.2-1.05.2-1.1.2-1.2.14-1.2.1-1.3-.15-1-6.5-4.6-1 .2-1.2.57-1.1.5-1.1.6-1 .6-1 .5-.9.6-.8.6-.8.5-.7.5-.7.5-.6.5-.6.5-.5.45-.5.4-.5.4-.4.4-.3.4-.3.4-.3.3-.3.3-.2.2-.2.2-.2.2-.1.1-.1.1-.1.1v.05L143 37l-13-5.4 2.8-8.7v-.1l.1-.2.05-.2.1-.2.06-.3.1-.4.1-.4.1-.4.1-.44v-4.6l-.1-.85-.1-.9-.2-.9-.2-1-.2-1-.2-1.1-.2-1.1-.3-1.2-.3-1.2-.4-1.2-.5-.9-7.6-1.5-.8.6-.8 1-.8 1-.7.9-.7 1-.6.9-.6.9-.5.9-.5.8-.5.8-.4.8-.4.8-.4.7-.3.6-.2.6-.3.6-.2.5-.2.5-.1.4-.2.4-.1.3-.1.3v.2l-.1.2v.5l-.8 9.1-14.33.2-.9-9.1v-.4l-.1-.2-.1-.2-.1-.3-.1-.3-.1-.4L97 17l-.15-.5-.2-.5-.2-.5-.2-.6-.3-.6-.3-.6-.3-.6-.4-.7-.4-.7-.5-.8-.5-.8-.57-.8-.6-.87-.7-.9-.7-.9-.7-.8-.8-1-.9-1-.7-.6L80 4.8l-.6.9v1.8l-.3 1.2-.3 1.14-.28 1.1-.2 1.1-.2 1.1-.1 1-.1.97-.1.9-.1.8-.1.9v2.8l.1.6v1l.1.4.1.4.1.3.1.3.1.3.1.2.1.1v.2l3.1 8.6-13 6.1-5-7.7-.3.1-.1-.1-.1-.1-.1-.2-.2-.2-.2-.22-.2-.3-.3-.3-.3-.36-.4-.4-.4-.4-.4-.5-.5-.5-.5-.5-.6-.5-.6-.5-.7-.5-.7-.5-.8-.6-.8-.5-.9-.6-1-.6-1-.5-1-.6L50 21l-1.13-.55-1-.2L41.5 25l-.1 1.04.17 1.28.2 1.24.2 1.16.2 1.13.25 1.07.24 1.03.3.97.25.9.3.87.3.8.3.7.3.7.3.7.3.6.3.5.3.5.3.4.3.4.2.3.2.3.2.3.2.2.2.2.2.2.1.1.1.1h.1l6.2 6.7-9.6 11-7.4-5.4-.1-.1-.1-.1-.2-.1-.2-.1-.3-.1-.3-.2-.3-.2-.4-.2-.4-.2-.5-.2-.5-.2-.6-.2-.6-.2-.7-.2-.7-.2-.8-.2-.9-.2-.9-.2-.9-.1-1-.2-1-.2-1.1-.1-1.1-.1-1.2-.1h-3l-1 .4-3.9 6.9.3 1 .7 1.1.7 1 .7 1 .7.9.7.9.6.8.7.8.65.7.6.7.57.7.57.6.56.5.5.5.5.4.47.4.45.3.4.3.4.3.3.2.3.2.3.2.2.1.2.1.2.1.1.1h.1l8.4 3.5-4.4 14-8.9-1.9h-4.1l-.7.1-.7.1-.7.1-.7.1-.8.12-.8.2-.8.2-.9.3-1 .3-1 .3-1 .4-1.1.4-1.1.44-1.1.5-1.1.5-.8.6-.7 7.9.7.8 1 .8 1 .7 1 .6 1 .6 1 .6.9.5.9.4.88.4.8.3.8.3.7.3.7.26.7.3.6.2.6.2.5.16.5.15.5.1.4.1.4.1h1.1l.2.05h.2l9.1-.2 1.8 14.4-8.9 1.9h-.2l-.1.04-.2.1-.2.1-.3.1-.4.1-.3.1-.4.2-.4.2-.5.3-.5.3-.5.3-.6.4-.6.4-.7.4-.7.5-.7.5-.7.6-.7.6-.8.6-.8.7-.8.7-.8.8-.8.9-.8.9-.8 1-.5.9 2.5 7.5.9.5 1.3.2 1.2.2 1.2.2 1.1.1 1.1.1 1 .1h3l.9-.08h1.6l.7-.1.6-.1.6-.1.54-.1.5-.1.5-.1.4-.1.4-.1.33-.1.3-.1.3-.1h.1l.2-.1.1-.1 8.3-4 7.33 12.4-7.4 5.4-.1.1h-.1l-.1.1-.14.1-.2.2-.2.2-.25.2-.2.3-.3.3-.3.4-.3.4-.4.44-.3.5-.4.5-.4.6-.4.7-.4.7-.5.8-.4.8-.4.9-.4.9-.4.96-.4 1-.4 1.06-.4 1.2-.4 1.1-.4 1.23-.1 1 5.3 5.85h1l1.2-.3 1.2-.3 1.2-.3 1.1-.3 1.1-.4 1-.3.9-.35.9-.4.8-.4.8-.4.7-.3.7-.4.7-.4.6-.4.6-.4.5-.32.4-.3.4-.3.3-.3.3-.25.2-.2.2-.2.17-.2.2-.2.1-.1v-.1h.3l6-6.9 11.7 8.4-4.6 7.9-.07.03v.1l-.1.1v.2l-.1.3-.1.3-.1.3-.1.4-.1.4-.1.4-.1.5-.1.52-.2.6-.1.65-.15.7-.2.8-.1.8-.1.9-.1.9v1l-.1 1v2.1l.1 1.15.1 1.2.1 1.2.2 1.3.4 1 7.2 3.2.9-.4 1.1-.8 1-.7.9-.8.85-.7.8-.8.75-.73.8-.7.65-.7.6-.6.6-.7.5-.6.5-.6.4-.6.4-.5.36-.6.3-.5.3-.42.2-.4.2-.37.2-.3.1-.3.1-.2.1-.3.1-.1.1-.2v-.1l2.6-8.7 14.1 2.8-.9 9.1v2.4l.07.45.08.5.1.6.1.6.2.7.13.7.2.7.3.8.3.9.3.85.3.9.37.9.4 1 .5 1 .5 1 .6 1 .6 1.1.68 1.1.7.7 8-.1.7-.8.6-1.1.6-1.1.5-1.1.5-1 .5-1 .4-1 .3-.9.3-.9.3-.9.3-.8.2-.8.2-.8.2-.7.1-.7.1-.6.1-.6.1-.5.1-.5.1-.4v-2l-1.2-9.1 14-3.16 2.8 8.7v.13l.1.12.1.17.1.25.1.3.1.3.2.3.2.3.3.4.3.4.3.4.4.5.4.5.4.6.5.6.5.6.6.6.6.7.64.7.7.7.8.7.8.7.86.7.9.7.9.7 1.1.7.98.4 7.2-3.3.3-1 .1-1.3.1-1.2v-4.4l-.1-1-.1-1-.1-.9-.1-.9-.1-.8-.14-.8-.2-.7-.15-.7-.13-.6-.1-.6-.12-.5-.1-.5-.1-.4-.1-.4-.2-.3-.1-.3-.1-.2-.1-.2-.05-.1-.02-.1-4.7-7.8 11.5-8.6 6.1 6.8.08.1.06.1.1.1.2.1.2.2.2.2.2.2.3.2.4.3.4.3.4.3.5.3.5.3.6.3.7.3.7.3.8.4.8.34.8.4.9.35.97.3 1 .32 1.06.3 1.1.3 1.14.3 1.2.3 1.3.3h1l5.2-6-.1-1-.4-1.2-.44-1.2-.5-1.1-.4-1.1-.4-1-.4-.96-.5-.9-.5-.8-.5-.8-.4-.7-.5-.7-.45-.64-.4-.6-.4-.5-.34-.5-.4-.4-.4-.4-.3-.4-.3-.3-.22-.2-.3-.2-.2-.2-.2-.2-.14-.17-.1-.1-.1-.1-7.5-5.2 7-12.58 8.3 3.7h.1l.1.1h.2l.2.1.3.1.3.1.3.1.4.1.4.1.5.06.5.1.6.1.62.1h.7l.7.04.8.04h2.3l1-.03 1-.1 1-.1 1.1-.1 1.2-.2 1.2-.2 1.2-.2 1.22-.3.9-.46 2.4-7.6-.5-.9-.9-.9-.9-.9-.9-.8-.85-.8-.86-.7-.8-.7-.73-.6-.8-.6-.7-.5-.7-.5-.7-.5-.6-.4-.6-.34-.6-.4-.6-.3-.5-.3-.5-.3-.4-.2-.45-.2-.4-.1-.3-.1-.3-.1-.2-.1h-.4.17l-8.9-1.7z"/></svg>