<svg xmlns="http://www.w3.org/2000/svg" id="Layer_1" viewBox="0 0 214 214"><style>polygon:hover{fill:black}</style><path id="gearpoly1" fill="none" stroke="#27AAE1" stroke-width="3" stroke-miterlimit="10" d="M184.456 106.902h9.106l.057-.002.1-.005.15-.012.2-.02.24-.03.29-.043.34-.058.38-.076.42-.093.47-.113.51-.14.55-.162.59-.19.63-.22.67-.25.71-.284.75-.32.78-.355.81-.4.85-.44.88-.48.91-.52.94-.57.97-.61.99-.66 1.01-.72 1.03-.77.66-.79-.93-7.88-.83-.61-1.18-.5-1.15-.46-1.12-.41-1.08-.37-1.04-.34-1.01-.3-.97-.26-.93-.23-.89-.2-.85-.16-.8-.14-.76-.11-.71-.09-.67-.07-.62-.05-.58-.03-.53-.01h-.48l-.44.01-.39.02-.34.02-.3.02-.25.02-.2.03-.15.02-.11.02-.06.01-8.86 2.13-4.6-13.63 8.32-3.72.05-.03.09-.04.13-.08.17-.1.21-.13.247-.16.29-.19.32-.23.35-.26.384-.29.41-.34.44-.38.47-.41.49-.46.516-.51.54-.55.55-.59.57-.65.59-.69.6-.75.61-.8.62-.85.63-.9.64-.95.64-1.01.63-1.06.634-1.12.288-.99-4.04-6.82-1-.22-1.28.02-1.23.05-1.19.08-1.14.1-1.087.12-1.04.14-.985.16-.94.17-.89.18-.84.194-.79.2-.74.21-.68.21-.637.21-.59.21-.54.21-.49.2-.44.2-.39.186-.34.17-.3.16-.26.15-.21.124-.17.11-.13.09-.08.06-.05.04-7.23 5.56-9.72-10.57 6.09-6.79.04-.04.064-.087.09-.12.12-.16.14-.2.16-.25.18-.29.2-.34.21-.38.23-.42.24-.47.25-.52.26-.58.26-.62.27-.67.27-.72.26-.77.26-.82.26-.87.25-.92.23-.98.23-1.02.21-1.08.19-1.13.17-1.18.15-1.23.13-1.28-.14-1.02-6.45-4.58-1.01.2-1.16.55-1.103.55-1.05.56-1 .56-.94.56-.89.55-.84.55-.78.54-.73.53-.68.52-.64.5-.59.49-.548.474-.49.45-.45.43-.41.41-.36.38-.33.36-.29.33-.25.3-.21.27-.175.24-.14.2-.11.17-.08.13-.06.09-.03.05-4.35 8.03-13.16-5.686 2.81-8.7.02-.06.025-.1.04-.15.05-.198.05-.25.05-.29.05-.34.042-.387.047-.437.04-.48.02-.53.02-.58v-.624l-.01-.68-.03-.72-.05-.77-.07-.81-.09-.86-.12-.9-.15-.945-.18-.99-.22-1.03-.245-1.08-.29-1.11-.32-1.15-.36-1.187-.4-1.22-.54-.87L123 3.438l-.83.6-.84.98-.79.952-.73.94-.69.92-.64.89-.59.87-.54.84-.5.82-.46.79-.42.755-.375.726-.34.69-.3.65-.27.615-.23.58-.208.54-.18.5-.15.46-.13.42-.11.38-.09.33-.06.29-.05.24-.04.2-.02.15-.01.1-.01.06-.72 9.12-14.33.18-.953-9.09-.006-.06-.02-.107-.03-.15-.04-.2-.05-.24-.07-.28-.1-.33-.11-.37-.14-.413-.16-.454-.19-.5-.22-.536-.25-.57-.28-.61-.32-.65-.357-.68-.39-.716-.43-.75-.47-.773-.52-.8-.57-.83-.61-.86-.66-.88-.71-.9-.76-.92-.81-.94-.86-.95-.8-.51-7.71 1.75-.516.884-.37 1.224-.33 1.19-.3 1.154-.24 1.13-.22 1.074-.18 1.04-.15.99-.12.95-.1.9-.07.86-.05.81-.03.77-.01.72.01.67.02.62.03.58.04.53.05.48.06.43.06.38.06.33.06.29.05.24.05.19.04.15.03.1.02.05 3.03 8.62-13.01 6.01-4.55-7.92-.03-.05-.06-.09-.08-.124-.11-.16-.15-.2-.18-.23-.22-.267-.26-.29-.3-.33-.33-.35-.37-.374-.41-.4-.47-.42-.51-.45-.55-.46-.6-.474-.65-.49-.7-.5-.75-.52-.8-.52-.85-.53-.91-.53-.96-.53-1.01-.538-1.07-.53-1.12-.52-1.174-.52-1.01-.18-6.33 4.75-.114 1.02.16 1.28.18 1.23.21 1.18.21 1.12.23 1.08.25 1.03.26.97.27.92.28.86.28.817.28.76.28.71.28.66.28.61.27.563.26.51.25.47.24.42.22.38.21.33.19.285.17.24.14.2.12.16.1.12.07.08.04.04 6.26 6.64-9.45 10.81-7.37-5.37-.05-.04-.09-.054-.13-.08-.17-.1-.22-.123-.26-.134-.306-.15-.36-.17-.4-.18-.45-.18-.496-.19-.542-.2-.59-.194-.64-.195-.69-.19-.74-.19-.79-.18-.84-.18-.89-.16-.94-.15-.99-.14-1.04-.11-1.09-.097-1.14-.07-1.185-.05-1.23-.02-1.29.01-.99.25-3.86 6.93.31.98.66 1.105.66 1.045.66.99.66.94.65.88.64.83.63.78.62.73.6.68.59.63.57.58.545.54.53.49.5.45.48.407.45.36.42.32.39.28.36.25.32.213.29.18.25.15.21.12.18.09.13.07.1.046.05.026 8.41 3.51-4.27 13.8-8.908-1.9-.06-.012-.1-.013-.15-.02-.196-.02-.245-.02-.29-.01-.34-.01h-.39l-.43.01-.48.02-.53.03-.57.05-.62.06-.66.09-.71.11-.75.13-.79.16-.84.18-.88.21-.92.25-.96.29-1 .32-1.03.36-1.07.393-1.11.44-1.14.49-1.17.53-.81.63-.73 7.91.68.77 1.06.74 1.03.69 1.01.636.98.59.95.545.93.5.89.45.86.41.83.377.79.34.75.3.72.265.68.23.64.21.6.174.56.15.51.12.478.1.42.084.39.07.34.05.29.04.25.02.2.02.15.008.11.008h.06l9.1-.23 1.68 14.29-8.9 1.9-.06.01-.1.03-.15.05-.19.06-.23.08-.274.1-.314.13-.36.15-.39.188-.432.21-.48.24-.51.28-.54.31-.57.35-.61.39-.64.426-.67.47-.69.51-.72.56-.74.606-.76.65-.79.7-.8.75-.81.8-.83.86-.84.91-.86.97-.49.91 2.54 7.52.93.42 1.26.24 1.22.21 1.18.17 1.137.14 1.09.11 1.05.08 1 .05.954.03h.906l.86-.02.81-.037.767-.05.71-.067.67-.07.62-.083.57-.09.52-.1.47-.1.426-.094.37-.1.33-.09.28-.09.24-.08.18-.06.14-.06.09-.04.05-.02 8.22-3.93 7.32 12.37-7.36 5.37-.05.04-.08.07-.117.1-.15.13-.18.17-.21.2-.24.246-.266.29-.29.323-.31.37-.338.42-.36.455-.37.5-.388.56-.393.6-.41.65-.42.7-.424.75-.43.8-.43.86-.44.91-.43.96-.42 1.01-.42 1.06-.41 1.12-.4 1.176-.39 1.224-.07 1.028 5.36 5.83 1.02.01 1.25-.295 1.2-.31 1.15-.32 1.09-.33 1.04-.346.983-.36.93-.36.885-.37.83-.36.78-.367.723-.37.68-.353.63-.35.58-.34.53-.333.483-.31.44-.3.39-.28.347-.264.31-.24.26-.22.22-.19.19-.17.15-.14.11-.11.07-.07.04-.04 5.91-6.93 11.69 8.31-4.55 7.92-.03.05-.05.09-.07.14-.08.18-.092.23-.11.27-.12.32-.12.37-.13.41-.14.47-.14.51-.14.57-.13.61-.13.66-.12.71-.11.76-.1.81-.09.86-.07.91-.05.955-.03 1.01-.01 1.06.02 1.1.05 1.15.08 1.19.11 1.24.14 1.28.34.97 7.26 3.13.937-.41 1.02-.78.97-.77.91-.76.86-.76.81-.74.76-.73.71-.71.66-.696.61-.677.56-.65.52-.63.47-.6.43-.58.39-.545.35-.52.32-.49.28-.46.245-.42.21-.39.18-.35.15-.31.124-.26.09-.23.07-.19.05-.14.035-.1.02-.06 2.59-8.76 14.05 2.82-.95 9.09v.06l-.006.11v.15l-.004.2.01.25.01.29.02.34.04.39.05.433.066.48.09.52.1.57.125.617.15.65.18.7.21.74.24.78.27.82.3.86.34.9.38.93.42.96.47.997.5 1.03.56 1.05.6 1.08.65 1.12.71.75 7.9-.1.69-.76.62-1.127.57-1.1.53-1.07.48-1.04.44-1.01.39-.97.36-.94.32-.9.28-.86.25-.83.22-.78.19-.75.16-.71.13-.66.11-.62.09-.57.07-.53.05-.48.03-.434.03-.39.01-.34.01-.29v-.25l-.01-.2-.01-.156-.01-.1v-.06l-1.18-9.07 13.97-3.17 2.81 8.7.02.05.04.1.06.14.08.18.107.23.13.27.16.3.187.34.22.38.25.41.29.45.32.48.36.51.41.54.45.565.48.59.54.61.58.64.625.653.68.68.73.693.78.703.82.72.88.73.93.74.99.75 1.04.75.95.39 7.18-3.32.32-.98.11-1.28.075-1.24.044-1.2.02-1.142-.01-1.1-.03-1.05-.05-1-.07-.95-.09-.906-.11-.86-.12-.81-.13-.76-.14-.71-.15-.654-.15-.61-.15-.56-.15-.51-.147-.46-.143-.42-.13-.37-.12-.32-.12-.27-.1-.22-.09-.18-.07-.14-.05-.09-.03-.05-4.75-7.8 11.463-8.61 6.09 6.79.04.05.075.07.11.105.15.13.19.17.22.19.27.21.31.23.35.26.4.27.44.29.49.3.54.315.59.327.64.336.68.347.74.348.79.344.84.35.89.34.94.34.99.33 1.043.32 1.1.31 1.15.294 1.21.28 1.26.26 1.03-.03 5.22-5.97-.1-1.02-.42-1.216-.43-1.16-.44-1.11-.445-1.06-.45-1-.45-.95-.46-.89-.45-.84-.45-.79-.45-.74-.44-.69-.42-.636-.41-.59-.4-.55-.38-.492-.36-.45-.35-.4-.32-.37-.3-.32-.27-.28-.24-.24-.212-.2-.19-.17-.15-.13-.12-.1-.08-.06-.05-.04-7.5-5.19 7-12.553 8.317 3.72.05.02.1.04.143.05.19.06.24.07.282.08.33.084.38.09.43.087.47.09.524.08.57.074.62.07.67.05.72.05.766.03.81.016.86-.01.91-.024.95-.05 1-.07 1.04-.1 1.08-.136 1.13-.17 1.17-.2 1.22-.24 1.25-.27.925-.45 2.35-7.58-.51-.896-.874-.94-.86-.88-.85-.83-.84-.78-.82-.73-.8-.68-.77-.63-.76-.59-.73-.538-.71-.49-.68-.45-.645-.41-.62-.37-.58-.33-.55-.3-.51-.26-.48-.23-.44-.2-.4-.17-.36-.146-.32-.12-.28-.09-.24-.077-.2-.05-.15-.04-.1-.03-.06-.01-8.95-1.68z"/></svg>